<?xml version="1.0" encoding="UTF-8"?>
<svg version="1.1" xmlns="http://www.w3.org/2000/svg" width="500" height="447">
<path d="M0 0 C12.1942177 6.59738113 20.12226123 20.61544941 24.33911133 33.39282227 C25.85901513 39.03209152 27.14652823 44.42483886 26.30004883 50.24438477 C22.90837409 52.6597844 19.15146523 54.31702477 15.37817383 56.05688477 C13.7172168 56.83418945 13.7172168 56.83418945 12.02270508 57.62719727 C9.6947529 58.71130548 7.36397811 59.78937176 5.03051758 60.86157227 C3.92836914 61.37977539 2.8262207 61.89797852 1.69067383 62.43188477 C0.68037109 62.89981445 -0.32993164 63.36774414 -1.37084961 63.84985352 C-4.00906471 65.08590253 -4.00906471 65.08590253 -4.69995117 68.24438477 C-7.38037109 69.91430664 -7.38037109 69.91430664 -10.93041992 71.71313477 C-11.55846024 72.03471558 -12.18650055 72.35629639 -12.83357239 72.68762207 C-14.84696597 73.71581758 -16.86697917 74.7301814 -18.88745117 75.74438477 C-20.22970363 76.42708353 -21.57150625 77.11066751 -22.9128418 77.79516602 C-26.50250846 79.62365533 -30.09941272 81.43737889 -33.69995117 83.24438477 C-34.70872314 83.79473389 -35.71749512 84.34508301 -36.75683594 84.91210938 C-39.87248216 86.32248527 -42.29394353 86.71775367 -45.68432617 87.02954102 C-53.52099098 88.10880881 -59.93143573 91.15721867 -66.94995117 94.68188477 C-68.18237215 95.2750381 -69.41544347 95.86684217 -70.64916992 96.45727539 C-75.2628703 98.69233005 -75.2628703 98.69233005 -79.69995117 101.24438477 C-80.02995117 102.23438477 -80.35995117 103.22438477 -80.69995117 104.24438477 C-83.16503906 105.79077148 -83.16503906 105.79077148 -86.42260742 107.42407227 C-87.0015123 107.71871368 -87.58041718 108.0133551 -88.17686462 108.31692505 C-90.03416538 109.26043913 -91.89777747 110.19053891 -93.76245117 111.11938477 C-101.26094465 114.88690606 -108.67499409 118.63124191 -115.69995117 123.24438477 C-114.89604966 124.59832416 -114.09214676 125.95226272 -113.28823853 127.30619812 C-112.55553065 128.540245 -111.82284516 129.77430516 -111.09017944 131.00837708 C-108.99569225 134.53616376 -106.90078329 138.06369899 -104.80517578 141.59082031 C-100.82094059 148.29760011 -96.83855617 155.00540735 -92.8719635 161.72264099 C-90.83716804 165.16839993 -88.7999538 168.61272614 -86.76245117 172.05688477 C-86.36700104 172.72595856 -85.9715509 173.39503235 -85.56411743 174.0843811 C-80.25107561 183.06619568 -74.84986269 191.97568123 -69.08691406 200.67919922 C-66.7168718 204.31830204 -65.53332565 206.96417346 -64.69995117 211.24438477 C-63.30635921 213.99438014 -61.65808847 216.57696274 -60.01245117 219.18188477 C-59.29508789 220.33660278 -59.29508789 220.33660278 -58.56323242 221.51464844 C-52.83440282 230.70434146 -46.99686219 239.82724215 -41.15112305 248.94287109 C-40.67223633 249.70237061 -40.19334961 250.46187012 -39.69995117 251.24438477 C-39.1230957 252.10378662 -38.54624023 252.96318848 -37.9519043 253.84863281 C-37.3321875 255.03453003 -37.3321875 255.03453003 -36.69995117 256.24438477 C-37.69995117 259.24438477 -37.69995117 259.24438477 -39.51245117 260.43188477 C-41.69995117 261.24438477 -41.69995117 261.24438477 -45.69995117 261.24438477 C-47.46069336 258.99487305 -47.46069336 258.99487305 -49.24682617 255.81469727 C-49.73966599 254.95383263 -49.73966599 254.95383263 -50.24246216 254.07557678 C-50.95296014 252.83124378 -51.65677927 251.58307894 -52.35467529 250.33163452 C-53.82878814 247.69067654 -55.33723802 245.06997262 -56.84432983 242.44773865 C-57.62297356 241.09234644 -58.39999229 239.73601951 -59.17544556 238.37879944 C-62.87001231 231.91644787 -66.65658194 225.5132149 -70.52868652 219.15570068 C-71.56440491 217.44926068 -72.58684685 215.73478561 -73.60913086 214.02026367 C-74.54740723 212.48184814 -74.54740723 212.48184814 -75.50463867 210.91235352 C-76.05104004 210.00767334 -76.59744141 209.10299316 -77.16040039 208.17089844 C-77.92247803 207.21727417 -77.92247803 207.21727417 -78.69995117 206.24438477 C-82.74247769 206.24438477 -85.84196293 207.88361308 -89.47338867 209.49047852 C-90.23414703 209.82104752 -90.9949054 210.15161652 -91.77871704 210.49220276 C-94.21308209 211.5502732 -96.64430795 212.61529468 -99.07495117 213.68188477 C-102.26782348 215.08209495 -105.46350442 216.47560791 -108.66088867 217.86547852 C-109.39125336 218.18842392 -110.12161804 218.51136932 -110.87411499 218.84410095 C-114.46941957 220.40699764 -117.78689155 221.6786124 -121.69995117 222.24438477 C-121.36995117 223.23438477 -121.03995117 224.22438477 -120.69995117 225.24438477 C-120.6115503 227.10033205 -120.58232413 228.95933593 -120.58642578 230.81738281 C-120.58650131 231.95833908 -120.58657684 233.09929535 -120.58665466 234.27482605 C-120.59181595 235.50614761 -120.59697723 236.73746918 -120.60229492 238.00610352 C-120.60441734 239.89749809 -120.60441734 239.89749809 -120.60658264 241.82710266 C-120.61123543 245.17590185 -120.62021776 248.52463288 -120.63128662 251.87341309 C-120.6415243 255.2919862 -120.64608531 258.71056636 -120.65112305 262.12915039 C-120.66216018 268.83424738 -120.67890431 275.53931214 -120.69995117 282.24438477 C-123.99995117 282.24438477 -127.29995117 282.24438477 -130.69995117 282.24438477 C-130.69995117 262.44438477 -130.69995117 242.64438477 -130.69995117 222.24438477 C-132.34995117 221.91438477 -133.99995117 221.58438477 -135.69995117 221.24438477 C-136.98935677 220.79225947 -138.26567987 220.30077222 -139.5246582 219.76977539 C-140.23534454 219.47276733 -140.94603088 219.17575928 -141.67825317 218.86975098 C-142.43049164 218.54994263 -143.1827301 218.23013428 -143.95776367 217.90063477 C-144.74263153 217.57148071 -145.52749939 217.24232666 -146.33615112 216.90319824 C-148.83427742 215.85461966 -151.32968878 214.79975804 -153.82495117 213.74438477 C-156.32785819 212.69025089 -158.83130762 211.63742293 -161.33517456 210.58557129 C-162.89063774 209.93165453 -164.44545185 209.2761912 -165.99954224 208.61901855 C-168.87981024 207.40453156 -171.7331744 206.23331036 -174.69995117 205.24438477 C-175.07120117 206.26761841 -175.07120117 206.26761841 -175.44995117 207.31152344 C-176.92608652 210.77496366 -178.76923909 213.94813165 -180.69995117 217.17016602 C-181.09236496 217.83106735 -181.48477875 218.49196869 -181.88908386 219.17289734 C-183.15560485 221.30316337 -184.42753488 223.43013567 -185.69995117 225.55688477 C-186.56635314 227.01059546 -187.4326454 228.46437155 -188.29882812 229.91821289 C-193.97844099 239.43629293 -199.72610454 248.90736998 -205.69995117 258.24438477 C-209.03818074 257.62988479 -211.72204609 256.89877648 -214.69995117 255.24438477 C-213.34434254 251.6481274 -211.73866315 248.38176009 -209.82104492 245.05297852 C-209.23871094 244.04090332 -208.65637695 243.02882813 -208.05639648 241.98608398 C-207.10651855 240.35050537 -207.10651855 240.35050537 -206.13745117 238.68188477 C-205.64384094 237.82895844 -205.64384094 237.82895844 -205.14025879 236.95880127 C-199.33836022 226.93730852 -193.36308905 217.02604684 -187.32739258 207.14379883 C-181.81633148 198.11571396 -176.39900756 189.03473071 -171.01245117 179.93188477 C-163.34261187 166.9732999 -155.57387657 154.08030981 -147.69995117 141.24438477 C-151.56163 141.93792751 -154.57076615 143.71094139 -157.96948242 145.62329102 C-159.20027001 146.30423035 -160.43140082 146.98454962 -161.6628418 147.66430664 C-163.58859377 148.73324244 -165.51153849 149.8063686 -167.42871094 150.890625 C-169.28932377 151.9399867 -171.15952181 152.97025654 -173.03198242 153.99829102 C-174.1429126 154.62034424 -175.25384277 155.24239746 -176.3984375 155.88330078 C-180.10723234 157.41229074 -182.7252262 157.5731669 -186.69995117 157.24438477 C-187.35995117 156.91438477 -188.01995117 156.58438477 -188.69995117 156.24438477 C-191.34726987 157.39153044 -191.34726987 157.39153044 -194.33666992 159.10375977 C-195.47168945 159.72508789 -196.60670898 160.34641602 -197.77612305 160.98657227 C-198.98016808 161.65535905 -200.18394209 162.32463399 -201.38745117 162.99438477 C-222.99660657 174.94071756 -222.99660657 174.94071756 -232.63745117 172.24438477 C-233.64807617 171.91438477 -234.65870117 171.58438477 -235.69995117 171.24438477 C-236.15370117 172.27563477 -236.60745117 173.30688477 -237.07495117 174.36938477 C-240.00864767 179.4853397 -244.63973869 181.54418735 -249.69995117 184.24438477 C-251.11147461 185.08936523 -251.11147461 185.08936523 -252.55151367 185.95141602 C-261.81311498 191.39866637 -261.81311498 191.39866637 -267.69995117 190.24438477 C-273.74495513 187.77703621 -276.0109681 183.07995113 -278.67651367 177.28344727 C-279.88574123 173.69268758 -280.21292838 171.50652203 -278.83666992 167.97485352 C-276.48606233 164.39643714 -273.33108507 162.40856288 -269.69995117 160.24438477 C-268.66483398 159.62047852 -267.6297168 158.99657227 -266.56323242 158.35375977 C-260.58801469 154.93934963 -255.65306012 152.24438477 -248.69995117 152.24438477 C-247.70995117 152.57438477 -246.71995117 152.90438477 -245.69995117 153.24438477 C-245.54139648 152.59211914 -245.3828418 151.93985352 -245.21948242 151.26782227 C-244.86950195 149.9568457 -244.86950195 149.9568457 -244.51245117 148.61938477 C-244.18180664 147.33161133 -244.18180664 147.33161133 -243.84448242 146.01782227 C-240.45556953 137.80578078 -234.02488387 134.7780562 -226.43408203 130.81030273 C-224.63018512 129.86557945 -222.83967027 128.89852878 -221.04956055 127.92797852 C-212.23661495 123.24438477 -212.23661495 123.24438477 -207.69995117 123.24438477 C-205.94995117 125.24438477 -205.94995117 125.24438477 -204.69995117 127.24438477 C-205.02995117 126.70813477 -205.35995117 126.17188477 -205.69995117 125.61938477 C-206.98938755 122.55697337 -207.10410696 120.54499038 -206.69995117 117.24438477 C-203.36050045 111.45859224 -197.58247682 109.28256434 -191.82495117 106.43188477 C-189.75117144 105.37498275 -187.67825276 104.31638954 -185.60620117 103.25610352 C-184.5981543 102.74354004 -183.59010742 102.23097656 -182.55151367 101.70288086 C-178.77718723 99.77241629 -175.03360973 97.79801814 -171.32495117 95.74438477 C-169.70459961 94.86266602 -169.70459961 94.86266602 -168.05151367 93.96313477 C-165.58565309 92.49342845 -165.58565309 92.49342845 -164.97338867 90.27563477 C-164.8831543 89.60532227 -164.79291992 88.93500977 -164.69995117 88.24438477 C-163.27014346 84.23990911 -161.12119891 83.03498805 -157.44213867 81.06469727 C-156.35223633 80.47197021 -155.26233398 79.87924316 -154.1394043 79.26855469 C-153.26747437 78.80405411 -153.26747437 78.80405411 -152.37792969 78.33016968 C-149.31429127 76.69759472 -146.27039848 75.02881686 -143.22338867 73.36547852 C-142.59982483 73.02641983 -141.97626099 72.68736115 -141.33380127 72.33802795 C-134.88509659 68.82299623 -128.53644133 65.14550352 -122.19995117 61.43188477 C-121.18658691 60.83972168 -120.17322266 60.24755859 -119.12915039 59.63745117 C-115.60092686 57.56863747 -112.10375136 55.51358489 -108.69995117 53.24438477 C-105.01245117 53.61938477 -105.01245117 53.61938477 -101.69995117 54.24438477 C-101.69995117 55.23438477 -101.69995117 56.22438477 -101.69995117 57.24438477 C-99.21945836 56.01783433 -96.74027992 54.78879962 -94.26245117 53.55688477 C-93.53195557 53.19401367 -92.80145996 52.83114258 -92.04882812 52.45727539 C-87.4068626 50.1375802 -82.85629006 47.71889758 -78.39916992 45.05688477 C-76.69995117 44.24438477 -76.69995117 44.24438477 -73.69995117 44.24438477 C-71.65698242 46.86938477 -71.65698242 46.86938477 -69.51245117 50.24438477 C-69.14442383 50.81672852 -68.77639648 51.38907227 -68.3972168 51.97875977 C-67.48870046 53.39462939 -66.5930864 54.81876273 -65.69995117 56.24438477 C-66.14467773 55.44774414 -66.5894043 54.65110352 -67.04760742 53.83032227 C-67.61350586 52.77071289 -68.1794043 51.71110352 -68.76245117 50.61938477 C-69.61516602 49.05317383 -69.61516602 49.05317383 -70.48510742 47.45532227 C-71.93133467 43.63281808 -72.14179858 42.07256499 -70.69995117 38.24438477 C-65.66590471 32.00559138 -57.59105407 28.72924475 -50.63745117 25.11938477 C-49.38959323 24.46294616 -48.14228498 23.80546165 -46.89550781 23.14697266 C-45.00029839 22.14616675 -43.10479087 21.14598752 -41.20750427 20.14912415 C-35.31761633 17.053894 -29.47252043 13.87919704 -23.63745117 10.68188477 C-22.78981201 10.21830566 -21.94217285 9.75472656 -21.06884766 9.27709961 C-20.25488525 8.83188965 -19.44092285 8.38667969 -18.60229492 7.92797852 C-17.80936035 7.49984863 -17.01642578 7.07171875 -16.19946289 6.63061523 C-14.3839258 5.62371744 -12.59121392 4.57531595 -10.8137207 3.50268555 C-9.84934082 2.93404785 -8.88496094 2.36541016 -7.89135742 1.77954102 C-7.01809814 1.24852783 -6.14483887 0.71751465 -5.24511719 0.17041016 C-2.69995117 -0.75561523 -2.69995117 -0.75561523 0 0 Z M-64.69995117 57.24438477 C-63.69995117 59.24438477 -63.69995117 59.24438477 -63.69995117 59.24438477 Z M-62.69995117 60.24438477 C-61.69995117 62.24438477 -61.69995117 62.24438477 -61.69995117 62.24438477 Z M-203.69995117 129.24438477 C-202.69995117 131.24438477 -202.69995117 131.24438477 -202.69995117 131.24438477 Z M-201.69995117 132.24438477 C-200.69995117 134.24438477 -200.69995117 134.24438477 -200.69995117 134.24438477 Z M-131.69995117 133.24438477 C-133.12853746 135.48765447 -134.49958145 137.74253101 -135.84838867 140.03344727 C-136.26158356 140.72949066 -136.67477844 141.42553406 -137.10049438 142.14266968 C-137.97817764 143.62296243 -138.85404737 145.10433166 -139.72827148 146.58666992 C-141.058242 148.84106157 -142.39421253 151.09180606 -143.73120117 153.34204102 C-144.58312637 154.78062837 -145.43469981 156.21942411 -146.28588867 157.65844727 C-146.68286957 158.32744049 -147.07985046 158.99643372 -147.48886108 159.68569946 C-149.23103862 162.64468764 -150.83602752 165.5366582 -152.28833008 168.65600586 C-153.69995117 171.24438477 -153.69995117 171.24438477 -156.69995117 172.24438477 C-158.03982634 174.12330283 -158.03982634 174.12330283 -159.18041992 176.46313477 C-159.62192383 177.31262695 -160.06342773 178.16211914 -160.51831055 179.03735352 C-160.97012695 179.93067383 -161.42194336 180.82399414 -161.88745117 181.74438477 C-162.35086914 182.63770508 -162.81428711 183.53102539 -163.29174805 184.45141602 C-165.57914992 188.17470399 -165.57914992 188.17470399 -166.69995117 192.24438477 C-154.81995117 192.24438477 -142.93995117 192.24438477 -130.69995117 192.24438477 C-130.69995117 172.77438477 -130.69995117 153.30438477 -130.69995117 133.24438477 C-131.02995117 133.24438477 -131.35995117 133.24438477 -131.69995117 133.24438477 Z M-121.69995117 134.24438477 C-121.69995117 153.38438477 -121.69995117 172.52438477 -121.69995117 192.24438477 C-110.14995117 192.24438477 -98.59995117 192.24438477 -86.69995117 192.24438477 C-89.67184234 186.30060242 -92.46203495 180.77911603 -95.89135742 175.17407227 C-96.67736566 173.88119676 -97.46265728 172.58788538 -98.24731445 171.29418945 C-98.64960266 170.63221558 -99.05189087 169.9702417 -99.46636963 169.28820801 C-101.56277137 165.81484654 -103.61194128 162.31390816 -105.66479492 158.81469727 C-106.492042 157.40961575 -107.3195158 156.00466769 -108.1472168 154.59985352 C-109.40940046 152.45734833 -110.66990037 150.3139315 -111.92578125 148.16772461 C-113.16735515 146.04720421 -114.41541477 143.93062512 -115.66479492 141.81469727 C-116.04184067 141.16695343 -116.41888641 140.51920959 -116.80735779 139.85183716 C-118.67748737 136.47609965 -118.67748737 136.47609965 -121.69995117 134.24438477 Z M-153.69995117 202.24438477 C-151.18932556 203.91813517 -149.03968134 205.03440011 -146.28588867 206.18969727 C-145.4428418 206.54418945 -144.59979492 206.89868164 -143.73120117 207.26391602 C-142.85463867 207.6287207 -141.97807617 207.99352539 -141.07495117 208.36938477 C-140.1906543 208.74192383 -139.30635742 209.11446289 -138.39526367 209.49829102 C-134.66724615 211.35965123 -134.66724615 211.35965123 -130.69995117 212.24438477 C-130.69995117 208.94438477 -130.69995117 205.64438477 -130.69995117 202.24438477 C-138.28995117 202.24438477 -145.87995117 202.24438477 -153.69995117 202.24438477 Z M-121.69995117 202.24438477 C-121.36995117 205.21438477 -121.03995117 208.18438477 -120.69995117 211.24438477 C-113.09327052 209.1189887 -105.94093915 206.39209947 -98.69995117 203.24438477 C-98.69995117 202.91438477 -98.69995117 202.58438477 -98.69995117 202.24438477 C-106.28995117 202.24438477 -113.87995117 202.24438477 -121.69995117 202.24438477 Z " fill="#BE0C15" transform="translate(371.699951171875,161.755615234375)"/>
<path d="M0 0 C0.82877655 0.00182281 1.6575531 0.00364563 2.51144409 0.00552368 C15.64153442 0.05397187 28.41359648 0.67665947 41.3125 3.3125 C42.59833984 3.56990967 42.59833984 3.56990967 43.91015625 3.83251953 C83.95249507 12.0813003 119.68295196 30.4490442 150.3125 57.3125 C151.23289062 58.10914063 152.15328125 58.90578125 153.1015625 59.7265625 C157.60089993 63.68217335 161.7593452 67.72404162 165.6171875 72.30859375 C167.37618174 74.38777358 169.21507115 76.37424203 171.0625 78.375 C199.02404304 109.99305252 215.5914469 149.97549674 222.3125 191.3125 C222.49578857 192.37710449 222.67907715 193.44170898 222.86791992 194.53857422 C224.38099304 203.98767188 224.75273304 213.2657279 224.75 222.8125 C224.7510675 223.61220215 224.75213501 224.4119043 224.75323486 225.23583984 C224.70876873 248.54302395 220.77634633 271.20920786 213.3125 293.3125 C213.03067871 294.15506348 212.74885742 294.99762695 212.45849609 295.86572266 C206.01425051 314.75010217 197.13564231 333.18563717 185.3125 349.3125 C184.63058594 350.26511719 183.94867188 351.21773438 183.24609375 352.19921875 C171.42459819 368.37711517 158.09757232 382.92695629 142.3125 395.3125 C141.36246094 396.09109375 140.41242188 396.8696875 139.43359375 397.671875 C123.87271276 410.15237725 95.85622623 431.3125 75.3125 431.3125 C75.3125 430.6525 75.3125 429.9925 75.3125 429.3125 C76.27027344 428.91160156 77.22804688 428.51070313 78.21484375 428.09765625 C112.30468053 413.63937138 142.63191242 391.83705435 165.3125 362.3125 C165.72145508 361.7959082 166.13041016 361.27931641 166.55175781 360.74707031 C201.73614215 316.20485573 215.98625763 258.36708479 209.70605469 202.42578125 C204.77749222 163.43755015 189.44029322 125.64993826 164.3125 95.3125 C163.83135742 94.72984375 163.35021484 94.1471875 162.85449219 93.546875 C127.30342794 50.74842338 75.63146471 23.02743708 20.08081055 17.83032227 C-15.58883839 14.98626501 -50.76123597 20.23977564 -83.6875 34.3125 C-84.43435059 34.62944824 -85.18120117 34.94639648 -85.95068359 35.27294922 C-102.54280632 42.42197864 -117.72834597 51.86882804 -131.6875 63.3125 C-132.22181641 63.74530273 -132.75613281 64.17810547 -133.30664062 64.62402344 C-155.62043984 82.74240489 -173.47520473 104.75918096 -186.6875 130.3125 C-187.0597168 131.02567383 -187.43193359 131.73884766 -187.81542969 132.47363281 C-213.74892326 182.77090296 -217.26554145 241.36365 -200.80859375 295.18701172 C-191.35169383 324.62724181 -175.59109935 351.46331889 -154.640625 374.171875 C-153.05847392 375.90591258 -151.57803119 377.65949382 -150.125 379.5 C-147.56964995 382.44848083 -144.86034807 384.89529738 -141.890625 387.4140625 C-140.41283002 388.68748158 -138.96453089 389.99589051 -137.546875 391.3359375 C-121.29205624 406.65085178 -101.1771771 418.59427115 -80.6875 427.3125 C-80.6875 427.9725 -80.6875 428.6325 -80.6875 429.3125 C-103.46234168 422.28665679 -124.39135613 409.42621688 -142.6875 394.3125 C-143.55133301 393.6009375 -143.55133301 393.6009375 -144.43261719 392.875 C-156.00234293 383.28455275 -166.3719953 373.14527533 -175.6875 361.3125 C-176.46738281 360.36117188 -177.24726563 359.40984375 -178.05078125 358.4296875 C-200.18472607 330.82403383 -214.25476672 296.95241244 -220.6875 262.3125 C-220.82057556 261.5989888 -220.95365112 260.8854776 -221.09075928 260.15034485 C-223.26498072 248.21847551 -224.25551749 236.62221078 -224.1875 224.5 C-224.18606995 223.6651004 -224.18463989 222.83020081 -224.1831665 221.97000122 C-224.1148561 205.68646011 -222.28727304 190.22516011 -218.6875 174.3125 C-218.45756348 173.29397949 -218.22762695 172.27545898 -217.99072266 171.22607422 C-207.7413665 127.4215011 -182.6273225 84.05963008 -147.6875 55.3125 C-146.8315625 54.56871094 -145.975625 53.82492188 -145.09375 53.05859375 C-125.76728463 36.45965374 -103.56161504 23.20507796 -79.6875 14.3125 C-78.86314453 14.00473633 -78.03878906 13.69697266 -77.18945312 13.37988281 C-67.26322397 9.74026546 -57.26029676 6.78887038 -46.9375 4.5 C-46.06448242 4.30510986 -45.19146484 4.11021973 -44.29199219 3.90942383 C-29.5937366 0.83848995 -14.97398612 -0.06887064 0 0 Z " fill="#C80A14" transform="translate(249.6875,-0.3125)"/>
<path d="M0 0 C0 0.66 0 1.32 0 2 C-0.99515625 2.25652344 -1.9903125 2.51304688 -3.015625 2.77734375 C-42.30691568 13.3570518 -77.01914049 38.78425205 -97.67504883 74.05200195 C-99.52863765 77.32830673 -101.27863992 80.65272327 -103 84 C-103.31807617 84.60634277 -103.63615234 85.21268555 -103.96386719 85.83740234 C-122.95166415 122.39436776 -124.92090252 166.71375378 -112.80859375 205.69921875 C-109.08104357 216.99986974 -104.70786849 228.5186093 -97.84008789 238.29760742 C-97 240 -97 240 -98 243 C-100.73046875 244.578125 -100.73046875 244.578125 -104.1875 246.25 C-111.29705512 249.87088378 -115.41954401 253.6247906 -118.8125 260.8125 C-121 264 -121 264 -124.75 264.875 C-125.52085938 264.98328125 -126.29171875 265.0915625 -127.0859375 265.203125 C-131.99075804 266.5443896 -136.16567502 269.29930362 -140.50292969 271.90185547 C-145.72072459 275 -145.72072459 275 -149 275 C-165.30537055 245.49441097 -174.48518402 215.72274705 -174.3125 181.8125 C-174.31034485 181.0462027 -174.3081897 180.2799054 -174.30596924 179.49038696 C-174.25175188 167.44144196 -173.70488836 155.78488497 -171 144 C-170.80664062 143.13729492 -170.61328125 142.27458984 -170.4140625 141.38574219 C-164.43158707 115.50784309 -153.04420071 92.0834726 -137 71 C-136.31679687 70.09121094 -135.63359375 69.18242188 -134.9296875 68.24609375 C-105.44633102 30.63519604 -62.04723801 7.4520882 -15 1 C-9.97932282 0.39934444 -5.06043708 -0.0570726 0 0 Z " fill="#CACAC9" transform="translate(242,45)"/>
<path d="M0 0 C0.66 0 1.32 0 2 0 C-3.55044351 26.24897245 -19.8148466 51.75138734 -38 71 C-39.12962233 72.32941948 -40.25479312 73.66263718 -41.375 75 C-55.3263153 90.8943067 -74.6723191 104.45121806 -94 113 C-94.99 113 -95.98 113 -97 113 C-98.37866211 111.41455078 -98.37866211 111.41455078 -99.77734375 109.1953125 C-100.29103516 108.38320313 -100.80472656 107.57109375 -101.33398438 106.734375 C-101.86314453 105.87328125 -102.39230469 105.0121875 -102.9375 104.125 C-103.72543945 102.89136719 -103.72543945 102.89136719 -104.52929688 101.6328125 C-108.6339385 95.05716634 -111.55319216 88.34042351 -114 81 C-113.46334717 80.88519287 -112.92669434 80.77038574 -112.3737793 80.65209961 C-80.18645331 73.65693491 -52.95720629 60.93164095 -29 38 C-28.2059375 37.26910156 -27.411875 36.53820312 -26.59375 35.78515625 C-16.34370642 26.03788379 -7.96278548 14.51744945 -1.3046875 2.0625 C-0.87414062 1.381875 -0.44359375 0.70125 0 0 Z " fill="#282826" transform="translate(421,278)"/>
<path d="M0 0 C0.62592041 0.4232959 1.25184082 0.8465918 1.89672852 1.28271484 C2.96407227 1.99685547 4.03141602 2.71099609 5.13110352 3.44677734 C6.30483422 4.26443244 7.47666855 5.08481553 8.64672852 5.90771484 C9.2487207 6.32794922 9.85071289 6.74818359 10.47094727 7.18115234 C11.94785895 8.21264622 13.42252046 9.24736063 14.89672852 10.28271484 C14.3147125 14.61500331 12.75184304 17.56027842 10.46704102 21.26318359 C10.12042923 21.82965103 9.77381744 22.39611847 9.41670227 22.97975159 C8.29198194 24.81427621 7.15699487 26.64220158 6.02172852 28.47021484 C5.24766553 29.72856936 4.47431242 30.98736081 3.70166016 32.24658203 C2.16156795 34.75430096 0.61763576 37.25958281 -0.92993164 39.76269531 C-3.86206261 44.50705393 -6.76287168 49.27043809 -9.66577148 54.03271484 C-11.14387457 56.45003467 -12.62346226 58.86643888 -14.10327148 61.28271484 C-19.160765 59.83883166 -23.20462973 57.63588415 -27.60327148 54.84521484 C-28.29960693 54.40564453 -28.99594238 53.96607422 -29.71337891 53.51318359 C-40.88011496 46.33646818 -51.89651712 37.8840444 -61.10327148 28.28271484 C-61.10327148 27.62271484 -61.10327148 26.96271484 -61.10327148 26.28271484 C-59.65694336 25.50347656 -59.65694336 25.50347656 -58.18139648 24.70849609 C-56.905047 24.00462689 -55.62902235 23.30016845 -54.35327148 22.59521484 C-53.40194336 22.08571289 -53.40194336 22.08571289 -52.43139648 21.56591797 C-49.21960441 19.77601301 -47.2528807 18.47371684 -44.94311523 15.52490234 C-43.10327148 13.28271484 -43.10327148 13.28271484 -40.84155273 12.86474609 C-40.04104492 12.94080078 -39.24053711 13.01685547 -38.41577148 13.09521484 C-27.26917354 14.06210468 -19.10240095 8.78715405 -9.83569336 3.27490234 C-8.89661133 2.73607422 -7.9575293 2.19724609 -6.98999023 1.64208984 C-6.14654053 1.14161133 -5.30309082 0.64113281 -4.43408203 0.12548828 C-2.10327148 -0.71728516 -2.10327148 -0.71728516 0 0 Z " fill="#646462" transform="translate(181.103271484375,326.71728515625)"/>
<path d="M0 0 C1.51220703 2.0637207 1.51220703 2.0637207 3.2578125 4.92578125 C3.88300781 5.94994141 4.50820313 6.97410156 5.15234375 8.02929688 C6.12880859 9.65448242 6.12880859 9.65448242 7.125 11.3125 C7.78371094 12.38435547 8.44242187 13.45621094 9.12109375 14.56054688 C14 22.61629788 14 22.61629788 14 26 C4.03788611 28.88047407 -5.84847375 31.34547995 -16.125 32.8125 C-16.97602295 32.9360083 -17.8270459 33.0595166 -18.70385742 33.18676758 C-24.27975676 33.93149573 -29.23875755 34 -35 34 C-35 27.4 -35 20.8 -35 14 C-30.33829063 12.00285238 -25.67576532 10.00790769 -21.01074219 8.01855469 C-19.42327555 7.34081105 -17.83635832 6.66177908 -16.25 5.98144531 C-13.97277951 5.00508703 -11.69363848 4.03334369 -9.4140625 3.0625 C-8.70255035 2.75626709 -7.99103821 2.45003418 -7.25796509 2.13452148 C-2.22774341 0 -2.22774341 0 0 0 Z " fill="#2A2A28" transform="translate(291,374)"/>
<path d="M0 0 C7.73509365 2.42393844 15.11637146 5.49394736 22.5625 8.6875 C23.76197266 9.19861328 24.96144531 9.70972656 26.19726562 10.23632812 C29.13284824 11.48775179 32.06661107 12.74344285 35 14 C35 20.6 35 27.2 35 34 C18.60696902 32.63391409 2.54966001 29.50056 -13 24 C-12.43047883 20.18450324 -11.36587116 17.58719011 -9.27734375 14.35546875 C-8.73916016 13.51435547 -8.20097656 12.67324219 -7.64648438 11.80664062 C-7.08251953 10.94232422 -6.51855469 10.07800781 -5.9375 9.1875 C-5.36966797 8.30384766 -4.80183594 7.42019531 -4.21679688 6.50976562 C-2.81806956 4.33527359 -1.41233662 2.1656675 0 0 Z " fill="#3F3F3E" transform="translate(200,374)"/>
<path d="M0 0 C0.66 0 1.32 0 2 0 C2.51046875 1.10408203 2.51046875 1.10408203 3.03125 2.23046875 C6.36283208 8.93793587 9.19260728 12.816786 16 16 C17.33333333 16.66666667 18.66666667 17.33333333 20 18 C19 21 19 21 16.890625 22.10546875 C15.58351563 22.64107422 15.58351563 22.64107422 14.25 23.1875 C8.81598485 25.74925 6.54197843 28.67243688 4 34 C3.62875 34.74121094 3.2575 35.48242188 2.875 36.24609375 C2.441875 37.11427734 2.441875 37.11427734 2 38 C-1 37 -1 37 -2.21875 34.70703125 C-2.6415625 33.75183594 -3.064375 32.79664063 -3.5 31.8125 C-6.86488527 25.25353583 -11.36067873 22.79985612 -18 20 C-17.505 18.515 -17.505 18.515 -17 17 C-14.9609375 16.03515625 -14.9609375 16.03515625 -12.375 15.0625 C-6.37653115 12.29529804 -4.26537911 8.20913289 -1.375 2.44921875 C-0.92125 1.64097656 -0.4675 0.83273438 0 0 Z " fill="#B1B1B0" transform="translate(367,72)"/>
<path d="M0 0 C0.99 0.33 1.98 0.66 3 1 C3.391875 2.093125 3.78375 3.18625 4.1875 4.3125 C5.47888692 7.72344587 6.92868787 8.84251801 10.1875 10.4375 C11.44893052 10.98071062 12.71718367 11.50942178 14 12 C13.67 12.99 13.34 13.98 13 15 C12.0925 15.391875 11.185 15.78375 10.25 16.1875 C6.35063355 18.36214667 5.15385191 20.51537397 3.078125 24.35546875 C2.72234375 24.89816406 2.3665625 25.44085938 2 26 C1.34 26 0.68 26 0 26 C-0.20753906 25.46890625 -0.41507813 24.9378125 -0.62890625 24.390625 C-3.10355424 18.71653672 -5.38887038 16.58975213 -11 14 C-11 13.34 -11 12.68 -11 12 C-9.35546875 10.95703125 -9.35546875 10.95703125 -7.1875 9.8125 C-2.72703854 7.17569624 -1.53011748 4.87724948 0 0 Z " fill="#888886" transform="translate(250,163)"/>
<path d="M0 0 C0.66 0.33 1.32 0.66 2 1 C1 4 1 4 -1.109375 5.10546875 C-1.98078125 5.46253906 -2.8521875 5.81960937 -3.75 6.1875 C-9.18401515 8.74925 -11.45802157 11.67243688 -14 17 C-14.37125 17.74121094 -14.7425 18.48242188 -15.125 19.24609375 C-15.558125 20.11427734 -15.558125 20.11427734 -16 21 C-19 20 -19 20 -20.38671875 17.49609375 C-20.81597656 16.48675781 -21.24523437 15.47742188 -21.6875 14.4375 C-22.12449219 13.42558594 -22.56148438 12.41367188 -23.01171875 11.37109375 C-23.33785156 10.58863281 -23.66398437 9.80617188 -24 9 C-22.71086513 8.32845067 -21.41859796 7.66291141 -20.125 7 C-19.40570313 6.62875 -18.68640625 6.2575 -17.9453125 5.875 C-16 5 -16 5 -14 5 C-14 4.34 -14 3.68 -14 3 C-4.5551406 -1.79444933 -4.5551406 -1.79444933 0 0 Z " fill="#5D5D5C" transform="translate(385,89)"/>
<path d="M0 0 C0.66 0 1.32 0 2 0 C4.97766749 5.24069479 4.97766749 5.24069479 5.0625 8.125 C2.55185859 12.55554367 -2.47290412 14.23332844 -7 16 C-8.21705318 16.67194289 -9.42497497 17.36059857 -10.625 18.0625 C-14 20 -14 20 -17 21 C-17 19.68 -17 18.36 -17 17 C-16.35933594 16.77828125 -15.71867187 16.5565625 -15.05859375 16.328125 C-7.69438339 13.29903102 -4.91192607 9.49756421 -1.375 2.44921875 C-0.92125 1.64097656 -0.4675 0.83273438 0 0 Z " fill="#CBCBCA" transform="translate(367,72)"/>
<path d="M0 0 C1.98 0.99 3.96 1.98 6 3 C2.92000054 6.67230705 0.7517398 7.56802365 -4 8 C-4 8.66 -4 9.32 -4 10 C-5.40691607 10.72750788 -6.82606022 11.43140353 -8.25 12.125 C-9.03890625 12.51945312 -9.8278125 12.91390625 -10.640625 13.3203125 C-13 14 -13 14 -15.296875 13.1171875 C-16.13992188 12.56417969 -16.13992188 12.56417969 -17 12 C-15.75 10.5 -15.75 10.5 -14 9 C-12.68 9 -11.36 9 -10 9 C-10 8.34 -10 7.68 -10 7 C-8.68 6.67 -7.36 6.34 -6 6 C-6 5.34 -6 4.68 -6 4 C-4.36368108 2.95107762 -2.69514137 1.95093297 -1 1 C-0.67 0.67 -0.34 0.34 0 0 Z " fill="#80807F" transform="translate(375,84)"/>
<path d="M0 0 C0.8971875 0.309375 0.8971875 0.309375 1.8125 0.625 C1.4825 1.615 1.1525 2.605 0.8125 3.625 C-0.095 4.016875 -1.0025 4.40875 -1.9375 4.8125 C-5.83686645 6.98714667 -7.03364809 9.14037397 -9.109375 12.98046875 C-9.46515625 13.52316406 -9.8209375 14.06585938 -10.1875 14.625 C-10.8475 14.625 -11.5075 14.625 -12.1875 14.625 C-13.5075 11.655 -14.8275 8.685 -16.1875 5.625 C-12.1875 3.625 -12.1875 3.625 -8.625 2.625 C-5.39477375 1.68529782 -3.24836419 -0.55686243 0 0 Z " fill="#50504F" transform="translate(262.1875,174.375)"/>
<path d="M0 0 C0.99 0.33 1.98 0.66 3 1 C3.33 1.99 3.66 2.98 4 4 C6.00016466 5.20882096 6.00016466 5.20882096 8 6 C6.75794193 9.72617422 4.8889325 11.39291457 2 14 C1.34 14 0.68 14 0 14 C-0.2475 13.38125 -0.495 12.7625 -0.75 12.125 C-2.20628639 9.64931313 -3.37812506 9.04874998 -6 8 C-6 7.34 -6 6.68 -6 6 C-5.38125 5.7525 -4.7625 5.505 -4.125 5.25 C-1.64931313 3.79371361 -1.04874998 2.62187494 0 0 Z " fill="#959594" transform="translate(417,233)"/>
<path d="M0 0 C0 0.99 0 1.98 0 3 C-0.66386719 3.268125 -1.32773437 3.53625 -2.01171875 3.8125 C-8.60202434 6.73724876 -11.90201279 9.50713513 -15 16 C-15.37125 16.74121094 -15.7425 17.48242188 -16.125 18.24609375 C-16.41375 18.82488281 -16.7025 19.40367188 -17 20 C-17.99 19.67 -18.98 19.34 -20 19 C-21.1875 15.9375 -21.1875 15.9375 -22 13 C-14.83688255 8.3169561 -7.56812483 3.99632124 0 0 Z " fill="#4C4C4A" transform="translate(386,90)"/>
<path d="M0 0 C0.99 0.33 1.98 0.66 3 1 C3.33 2.98 3.66 4.96 4 7 C2.8553125 7.6496875 2.8553125 7.6496875 1.6875 8.3125 C-0.94158819 9.79894064 -0.94158819 9.79894064 -2.4375 11.5625 C-4.66904943 13.61552547 -7.12528751 14.1695275 -10 15 C-10.33 14.01 -10.66 13.02 -11 12 C-10.45730469 11.72027344 -9.91460937 11.44054687 -9.35546875 11.15234375 C-3.95931183 8.12855131 -1.85566868 5.91494391 0 0 Z " fill="#C6C6C5" transform="translate(250,163)"/>
<path d="M0 0 C0.66 0.33 1.32 0.66 2 1 C1.25 2.9375 1.25 2.9375 0 5 C-2.125 5.75 -2.125 5.75 -4 6 C-4 6.66 -4 7.32 -4 8 C-5.32 8.33 -6.64 8.66 -8 9 C-8 9.66 -8 10.32 -8 11 C-10.64 11.99 -13.28 12.98 -16 14 C-13.82765163 7.4829549 -6.75994837 4.11037212 -1 1 C-0.67 0.67 -0.34 0.34 0 0 Z " fill="#9C9C9B" transform="translate(373,82)"/>
<path d="M0 0 C-6.7995816 4.48565554 -13.62696477 8.52939556 -21 12 C-21.33 11.01 -21.66 10.02 -22 9 C-20.71086513 8.32845067 -19.41859796 7.66291141 -18.125 7 C-17.40570313 6.62875 -16.68640625 6.2575 -15.9453125 5.875 C-14 5 -14 5 -12 5 C-12 4.34 -12 3.68 -12 3 C-10.5682384 2.30062798 -9.12932968 1.61587282 -7.6875 0.9375 C-6.88699219 0.55464844 -6.08648437 0.17179687 -5.26171875 -0.22265625 C-3 -1 -3 -1 0 0 Z " fill="#6F6F6E" transform="translate(383,89)"/>
<path d="M0 0 C-0.6875 1.875 -0.6875 1.875 -2 4 C-3.64551962 4.71727778 -5.31422289 5.38325228 -7 6 C-7.515625 6.515625 -8.03125 7.03125 -8.5625 7.5625 C-10.29446732 9.29446732 -11.62128554 9.58987682 -14 10 C-14.66 8.68 -15.32 7.36 -16 6 C-13.4845169 4.59132946 -11.24046904 3.78679833 -8.4375 3 C-5.37835007 2.11006547 -3.08448998 0 0 0 Z " fill="#626261" transform="translate(262,174)"/>
<path d="M0 0 C0.66 0.99 1.32 1.98 2 3 C-0.38289506 5.75914165 -2.65838582 6.66335433 -6 8 C-7.77277259 9.52007842 -7.77277259 9.52007842 -9 11 C-10.32 10.34 -11.64 9.68 -13 9 C-10 7 -10 7 -7.9375 6.625 C-5.80977622 6.18994877 -5.80977622 6.18994877 -5 4.0625 C-4.505 3.0415625 -4.505 3.0415625 -4 2 C-1.875 0.75 -1.875 0.75 0 0 Z " fill="#AAAAA9" transform="translate(254,169)"/>
<path d="M0 0 C0.66 0.33 1.32 0.66 2 1 C0.7749716 4.6750852 -0.09161648 4.85476105 -3.4375 6.5625 C-6.06030591 7.91389759 -7.9031259 8.9031259 -10 11 C-12.32275177 11.40047444 -14.65739357 11.7397104 -17 12 C-15.75 10.5 -15.75 10.5 -14 9 C-12.68 9 -11.36 9 -10 9 C-10 8.34 -10 7.68 -10 7 C-8.68 6.67 -7.36 6.34 -6 6 C-6 5.34 -6 4.68 -6 4 C-4.36368108 2.95107762 -2.69514137 1.95093297 -1 1 C-0.67 0.67 -0.34 0.34 0 0 Z " fill="#90908F" transform="translate(375,84)"/>
<path d="M0 0 C-0.125 1.75 -0.125 1.75 -1 4 C-3.8125 6.3125 -3.8125 6.3125 -7 8 C-9.19921875 7.60546875 -9.19921875 7.60546875 -11 7 C-9.54634731 5.82750647 -8.08692581 4.66216184 -6.625 3.5 C-5.40683594 2.52546875 -5.40683594 2.52546875 -4.1640625 1.53125 C-2 0 -2 0 0 0 Z M-13 8 C-11 9 -11 9 -11 9 Z " fill="#C7C7C6" transform="translate(372,78)"/>
<path d="M0 0 C0.66 0.33 1.32 0.66 2 1 C1.67 1.99 1.34 2.98 1 4 C-0.65 4 -2.3 4 -4 4 C-2.68 2.68 -1.36 1.36 0 0 Z M-5 4 C-5 4.99 -5 5.98 -5 7 C-7.31 7.66 -9.62 8.32 -12 9 C-9.63707344 6.47411298 -8.33537489 5.11179163 -5 4 Z " fill="#A6A6A6" transform="translate(373,82)"/>
<path d="M0 0 C0 3 0 3 -2.375 5.6875 C-5 8 -5 8 -7 8 C-7.33 6.68 -7.66 5.36 -8 4 C-5.36 2.68 -2.72 1.36 0 0 Z " fill="#515150" transform="translate(424,239)"/>
<path d="M0 0 C0.99 0.33 1.98 0.66 3 1 C3.33 2.65 3.66 4.3 4 6 C1.69 6.66 -0.62 7.32 -3 8 C-2.01 5.36 -1.02 2.72 0 0 Z " fill="#E5E5E5" transform="translate(250,163)"/>
<path d="M0 0 C0.99 0.33 1.98 0.66 3 1 C2.75390625 2.890625 2.75390625 2.890625 2 5 C0.15234375 6.046875 0.15234375 6.046875 -2.0625 6.75 C-3.16271484 7.11351562 -3.16271484 7.11351562 -4.28515625 7.484375 C-5.13400391 7.73960937 -5.13400391 7.73960937 -6 8 C-6 7.34 -6 6.68 -6 6 C-5.38125 5.7525 -4.7625 5.505 -4.125 5.25 C-1.64931313 3.79371361 -1.04874998 2.62187494 0 0 Z " fill="#D8D8D8" transform="translate(417,233)"/>
<path d="M0 0 C0.33 0.66 0.66 1.32 1 2 C0.06553465 4.03144641 -0.93224776 6.03533587 -2 8 C-2.99 7.67 -3.98 7.34 -5 7 C-5.33 6.01 -5.66 5.02 -6 4 C-4.02 2.68 -2.04 1.36 0 0 Z " fill="#31312F" transform="translate(371,102)"/>
<path d="M0 0 C0.66 0 1.32 0 2 0 C2.33 1.32 2.66 2.64 3 4 C-0.75 7 -0.75 7 -3 7 C-1.125 1.125 -1.125 1.125 0 0 Z " fill="#EFEFEF" transform="translate(367,72)"/>
<path d="M0 0 C-1.36983503 3.16115776 -1.9890638 3.9927092 -5 6 C-7.1875 5.625 -7.1875 5.625 -9 5 C-7.87926138 4.16094435 -6.75325453 3.32892169 -5.625 2.5 C-4.99851562 2.0359375 -4.37203125 1.571875 -3.7265625 1.09375 C-2 0 -2 0 0 0 Z " fill="#DADADA" transform="translate(371,76)"/>
<path d="M0 0 C0.66 0.33 1.32 0.66 2 1 C0.57277341 2.1998278 -0.86715776 3.3845576 -2.3125 4.5625 C-3.51326172 5.55443359 -3.51326172 5.55443359 -4.73828125 6.56640625 C-5.85783203 7.27603516 -5.85783203 7.27603516 -7 8 C-7.99 7.67 -8.98 7.34 -10 7 C-8.15494051 5.15494051 -6.6932977 4.17606951 -4.4375 2.9375 C-1.259699 1.34929866 -1.259699 1.34929866 0 0 Z " fill="#B9B9B9" transform="translate(361,86)"/>
<path d="M0 0 C0.66 0.33 1.32 0.66 2 1 C0.625 3.5 0.625 3.5 -1 6 C-1.66 6 -2.32 6 -3 6 C-3.33 4.68 -3.66 3.36 -4 2 C-2.125 0.9375 -2.125 0.9375 0 0 Z " fill="#353534" transform="translate(253,183)"/>
<path d="M0 0 C0 0.66 0 1.32 0 2 C-2.90600261 3.25664978 -4.79604584 4 -8 4 C-8 3.34 -8 2.68 -8 2 C-5.09399739 0.74335022 -3.20395416 0 0 0 Z " fill="#971418" transform="translate(333,427)"/>
<path d="M0 0 C0.86625 0.3403125 0.86625 0.3403125 1.75 0.6875 C0.76 1.0175 -0.23 1.3475 -1.25 1.6875 C-1.25 2.3475 -1.25 3.0075 -1.25 3.6875 C-2.9 3.3575 -4.55 3.0275 -6.25 2.6875 C-2.80384615 -0.38942308 -2.80384615 -0.38942308 0 0 Z " fill="#747473" transform="translate(252.25,178.3125)"/>
</svg>
